<?xml version="1.0" encoding="utf-8"?>
<!-- Generator: Adobe Illustrator 21.0.2, SVG Export Plug-In . SVG Version: 6.00 Build 0)  -->
<svg version="1.1" id="Слой_1" xmlns="http://www.w3.org/2000/svg" xmlns:xlink="http://www.w3.org/1999/xlink" x="0px" y="0px"
	 viewBox="0 0 229.3 67" style="enable-background:new 0 0 229.3 67;" xml:space="preserve">
<style type="text/css">
	.st0{enable-background:new    ;}
</style>
<g class="st0">
	<path d="M42.8,14.7l0,51.3c-6-6.4-12-12.7-17.9-19c-5.9-6.3-11.9-12.7-17.9-19c-0.2-0.3-0.5-0.6-0.7-0.9c-0.2-0.3-0.4-0.6-0.7-0.9
		c0,0.4,0.1,0.7,0.1,1.1c0,0.4,0.1,0.7,0.1,1.1l0,35.5l-5.8,0l0-51.3c6,6.5,12,13,17.9,19.4c5.9,6.4,11.9,12.9,17.9,19.4
		c0.2,0.3,0.5,0.6,0.7,0.9s0.4,0.6,0.7,0.9c0-0.4-0.1-0.7-0.1-1.1c0-0.4-0.1-0.7-0.1-1.1l0-36.3L42.8,14.7z"/>
	<path d="M54.3,39.3c0-3.4,0.7-6.6,2-9.7c1.3-3.1,3.1-5.7,5.4-8c2.3-2.3,4.9-4.1,8-5.4c3-1.3,6.3-2,9.7-2c3.4,0,6.6,0.7,9.7,2
		c3.1,1.3,5.7,3.1,8,5.4c2.3,2.3,4.1,5,5.4,8c1.3,3.1,2,6.3,2,9.7c0,3.5-0.7,6.7-2,9.7c-1.3,3-3.1,5.7-5.4,8c-2.3,2.3-5,4.1-8,5.4
		c-3.1,1.3-6.3,2-9.7,2c-3.5,0-6.7-0.6-9.7-1.9c-3-1.3-5.7-3.1-8-5.4c-2.3-2.3-4.1-4.9-5.4-8C55,46,54.3,42.8,54.3,39.3z M60.1,39.3
		c0,2.7,0.5,5.2,1.5,7.6c1,2.4,2.4,4.4,4.1,6.2s3.8,3.1,6.1,4.2c2.3,1,4.8,1.5,7.5,1.5c2.7,0,5.2-0.5,7.5-1.6c2.3-1,4.4-2.4,6.1-4.2
		c1.8-1.8,3.1-3.8,4.1-6.2c1-2.4,1.5-4.9,1.5-7.6c0-2.7-0.5-5.2-1.5-7.6c-1-2.4-2.4-4.4-4.1-6.2c-1.8-1.8-3.8-3.2-6.1-4.2
		c-2.3-1-4.8-1.5-7.5-1.5c-2.7,0-5.2,0.5-7.5,1.6c-2.3,1-4.4,2.4-6.1,4.2c-1.8,1.8-3.1,3.9-4.1,6.2C60.6,34,60.1,36.6,60.1,39.3z"/>
	<path d="M113.6,63.7l0-49.1l30.2,0l0,5.5l-24.4,0l0,16.1l21.6,0l0,5.5l-21.6,0l0,16.4l25.4,0l0,5.5L113.6,63.7z M127.2,11.1
		c1.1-1.5,2.1-3.1,3.2-4.7c1-1.6,2.1-3.1,3.2-4.7l5.9,0c-1.4,1.5-2.7,3.1-4,4.7c-1.3,1.6-2.7,3.1-4,4.7L127.2,11.1z"/>
	<path d="M157.9,12.3c4.3,5.6,8.6,11.1,12.8,16.6c4.3,5.5,8.5,11.1,12.8,16.6c4.3-5.6,8.6-11.1,12.8-16.7
		c4.2-5.5,8.5-11.1,12.8-16.7l0,51.3l-5.8,0l0-33c0-0.4,0.1-0.7,0.1-1.1c0-0.4,0.1-0.7,0.1-1.1c-3.1,4.6-6.3,9-9.8,13.4
		c-3.5,4.3-6.9,8.7-10.2,13.1c-3.1-4.1-6.3-8.2-9.4-12.3c-3.1-4.1-6.3-8.1-9.4-12.3l-1.3-1.9c0,0.4,0.1,0.7,0.1,1.1
		c0,0.4,0.1,0.7,0.1,1.1l0,33l-5.8,0L157.9,12.3z"/>
	<path d="M223.5,14.5l5.8,0l0,49.1l-5.8,0L223.5,14.5z"/>
</g>
</svg>
